<svg width="196" height="112" viewBox="0 0 196 112" fill="none" xmlns="http://www.w3.org/2000/svg">
<path d="M16.5 81.375L0.375 77.5291V111.75H195.375V91.6994L179.625 88.125H162.375L147.375 91.875H130.125L114 88.125L98.625 91.875H81L66 88.125H48.75L33 84L16.5 81.375Z" fill="#3B00ED" fill-opacity="0.9"/>
<path d="M32.25 55.875L0.375 39.8897V75.6428L16.1475 79.421L33.0084 82.0658L48.7697 86.2218H65.9972L81.0254 90H98.6193L114.014 86.2218L130.142 90H147.369L162.398 86.2218H179.625L195.375 90V72.1882L179.25 68.25L147.375 69.375L122.25 66.375L96.75 63.375L81.375 63L64.875 59.25H49.5L32.25 55.875Z" fill="#FF953B" fill-opacity="0.9"/>
</svg>
