<svg version="1.1" xmlns="http://www.w3.org/2000/svg" xmlns:xlink="http://www.w3.org/1999/xlink" width="1000" height="800"><defs/><g><path fill="none" stroke="#02063B" paint-order="fill stroke markers" d=" M 20 466.1779399567001 L 21 469.25360822398346 L 22 472.3099567560692 L 23 475.3461075652051 L 24 478.3611884657762 L 25 481.35433332485457 L 26 484.3246823110109 L 27 487.2713821413156 L 28 490.1935863264585 L 29 493.0904554139174 L 30 495.9611572291049 L 31 498.80486711442484 L 32 501.6207681661686 L 33 504.4080514691852 L 34 507.16591632925514 L 35 509.893570503104 L 36 512.590230425987 L 37 515.255121436782 L 38 517.8874780005233 L 39 520.4865439283149 L 40 523.0515725945583 L 41 525.5818271514335 L 42 528.076580740571 L 43 530.5351167018541 L 44 532.9567287792913 L 45 535.3407213239008 L 46 537.6864094935472 L 47 539.9931194496737 L 48 542.2601885508742 L 49 544.4869655432476 L 50 546.672810747482 L 51 548.8170962426132 L 52 550.9192060464052 L 53 552.9785362923024 L 54 554.9944954028997 L 55 556.9665042598833 L 56 558.8939963703924 L 57 560.7764180297537 L 58 562.6132284805424 L 59 564.403900067924 L 60 566.1479183912321 L 61 567.8447824517384 L 62 569.4940047965736 L 63 571.0951116587555 L 64 572.6476430932878 L 65 574.1511531092863 L 66 575.6052097980973 L 67 577.009395457371 L 68 578.3633067110535 L 69 579.666554625263 L 70 580.9187648200179 L 71 582.1195775767842 L 72 583.26864794181 L 73 584.3656458252195 L 74 585.4102560958373 L 75 586.4021786717146 L 76 587.3411286063333 L 77 588.2268361704612 L 78 589.0590469296366 L 79 589.837521817259 L 80 590.5620372032647 L 81 591.2323849583688 L 82 591.8483725138528 L 83 592.4098229168849 L 84 592.9165748813509 L 85 593.3684828341877 L 86 593.7654169572008 L 87 594.1072632243576 L 88 594.393923434542 L 89 594.6253152397658 L 90 594.8013721688237 L 91 594.9220436463881 L 92 594.9872950075387 L 93 594.9971075077194 L 94 594.9514783281238 L 95 594.8504205765045 L 96 594.6939632834082 L 97 594.4821513938356 L 98 594.2150457543303 L 99 593.8927230955003 L 100 593.5152760099746 L 101 593.0828129258056 L 102 592.5954580753205 L 103 592.0533514594339 L 104 591.4566488074299 L 105 590.8055215322266 L 106 590.1001566811344 L 107 589.3407568821237 L 108 588.5275402856169 L 109 587.66074050182 L 110 586.7406065336157 L 111 585.7674027050317 L 112 584.7414085853098 L 113 583.662918908595 L 114 582.5322434892676 L 115 581.3497071329442 L 116 580.1156495431721 L 117 578.8304252238432 L 118 577.4944033773565 L 119 576.1079677985595 L 120 574.6715167644954 L 121 573.1854629199927 L 122 571.6502331591245 L 123 570.0662685025769 L 124 568.4340239709585 L 125 566.7539684540873 L 126 565.0265845762947 L 127 563.2523685577834 L 128 561.4318300720796 L 129 559.5654920996211 L 130 557.6538907775218 L 131 555.6975752455576 L 132 553.6971074884166 L 133 551.6530621742593 L 134 549.5660264896361 L 135 547.4365999708075 L 136 545.265394331517 L 137 543.0530332872668 L 138 540.800152376144 L 139 538.5073987762523 L 140 536.175431119799 L 141 533.8049193038914 L 142 531.396544298098 L 143 528.950997948828 L 144 526.4689827805873 L 145 523.9512117941662 L 146 521.3984082618176 L 147 518.8113055194854 L 148 516.1906467561407 L 149 513.5371848002887 L 150 510.85168190370626 L 151 508.13490952247105 L 152 505.38764809534894 L 153 502.6106868195993 L 154 499.8048234242648 L 155 496.9708639410102 L 156 494.1096224725761 L 157 491.2219209589145 L 158 488.30858894107223 L 159 485.3704633228915 L 160 482.40838813059526 L 161 479.42321427032596 L 162 476.41579928370896 L 163 473.38700710150863 L 164 470.33770779545034 L 165 467.2687773282769 L 166 464.18109730211387 L 167 461.0755547052146 L 168 457.9530416571573 L 169 454.81445515256945 L 170 451.6606968034501 L 171 448.49267258016715 L 172 445.3112925512018 L 173 442.11747062171605 L 174 438.91212427101823 L 175 435.69617428900114 L 176 432.4705445116299 L 177 429.23616155555436 L 178 425.9939545519229 L 179 422.7448548794737 L 180 419.48979589698047 L 181 416.2297126751295 L 182 412.96554172790457 L 183 409.6982207435579 L 184 406.4286883152429 L 185 403.15788367138754 L 186 399.88674640588545 L 187 396.6162162081812 L 188 393.34723259332895 L 189 390.080734632101 L 190 386.8176606812234 L 191 383.55894811381745 L 192 380.30553305012336 L 193 377.0583500885841 L 194 373.8183320373657 L 195 370.5864096463928 L 196 367.3635113399748 L 197 364.1505629501005 L 198 360.9484874504769 L 199 357.7582046913896 L 200 354.5806311354604 L 201 351.41667959437757 L 202 348.2672589666755 L 203 345.13327397663846 L 204 342.0156249144028 L 205 338.9152073773336 L 206 335.8329120127494 L 207 332.7696242620682 L 208 329.72622410645005 L 209 326.7035858140073 L 210 323.7025776886562 L 211 320.72406182068227 L 212 317.76889383908974 L 213 314.8379226658085 L 214 311.9319902718261 L 215 309.05193143531784 L 216 306.1985735018425 L 217 303.3727361466732 L 218 300.5752311393323 L 219 297.8068621103963 L 220 295.06842432063985 L 221 292.3607044325833 L 222 289.6844802845108 L 223 287.0405206670233 L 224 284.4295851021899 L 225 281.8524236253628 L 226 279.3097765697169 L 227 276.80237435357634 L 228 274.33093727058974 L 229 271.8961752828136 L 230 269.49878781676364 L 231 267.1394635624929 L 232 264.8188802757536 L 233 262.53770458330075 L 234 260.29659179139185 L 235 258.0961856975396 L 236 255.93711840556986 L 237 253.82001014403912 L 238 251.74546908806363 L 239 249.71409118461068 L 240 247.7264599813027 L 241 245.78314645878348 L 242 243.88470886669418 L 243 242.03169256330682 L 244 240.22462985886094 L 245 238.46403986264824 L 246 236.7504283338899 L 247 235.08428753644876 L 248 233.46609609741796 L 249 231.89631886962732 L 250 230.37540679810658 L 251 228.90379679054377 L 252 227.4819115917761 L 253 226.11015966234936 L 254 224.78893506118072 L 255 223.5186173323587 L 256 222.29957139611264 L 257 221.1321474439832 L 258 220.01668083822406 L 259 218.9534920154633 L 260 217.94288639465256 L 261 216.98515428933038 L 262 216.08057082422476 L 263 215.22939585621876 L 264 214.4318738997023 L 265 213.68823405633145 L 266 212.99868994921476 L 267 212.36343966154678 L 268 211.78266567970502 L 269 211.25653484082784 L 270 210.78519828488754 L 271 210.36879141127295 L 272 210.00743383989365 L 273 209.70122937681708 L 274 209.45026598444846 L 275 209.25461575626227 L 276 209.114334896092 L 277 209.02946370198475 L 278 209.00002655462498 L 279 209.0260319103305 L 280 209.10747229862355 L 281 209.24432432437672 L 282 209.43654867453353 L 283 209.68409012940174 L 284 209.98687757851633 L 285 210.344824041067 L 286 210.75782669088497 L 287 211.2257668859815 L 288 211.74851020262972 L 289 212.32590647398038 L 290 212.95778983319948 L 291 213.64397876111659 L 292 214.38427613836916 L 293 215.1784693020284 L 294 216.02633010669027 L 295 216.9276149900143 L 296 217.88206504269064 L 297 218.8894060828165 L 298 219.94934873465928 L 299 221.06158851178472 L 300 222.2258059045258 L 301 223.44166647176726 L 302 224.70882093701942 L 303 226.02690528875388 L 304 227.3955408849718 L 305 228.81433456197553 L 306 230.28287874731086 L 307 231.80075157685 L 308 233.36751701597845 L 309 234.9827249848537 L 310 236.64591148769807 L 311 238.35659874608945 L 312 240.11429533621117 L 313 241.91849633002184 L 314 243.76868344030436 L 315 245.66432516955277 L 316 247.60487696265395 L 317 249.5897813633201 L 318 251.61846817422756 L 319 253.6903546208157 L 320 255.80484551869867 L 321 257.96133344464215 L 322 260.159198911056 L 323 262.3978105439526 L 324 264.6765252643195 L 325 266.99468847285493 L 326 269.35163423801225 L 327 271.7466854873004 L 328 274.17915420178406 L 329 276.64834161372903 L 330 279.15353840733485 L 331 281.6940249224978 L 332 284.2690713615454 L 333 286.8779379988832 L 334 289.5198753934933 L 335 292.19412460422427 L 336 294.8999174078093 L 337 297.63647651955193 L 338 300.4030158166137 L 339 303.1987405638413 L 340 306.02284764206803 L 341 308.874525778823 L 342 311.75295578138287 L 343 314.65731077209904 L 344 317.5867564259319 L 345 320.54045121012524 L 346 323.5175466259499 L 347 326.51718745245046 L 348 329.53851199212124 L 349 332.5806523184436 L 350 335.6427345252124 L 351 338.7238789775806 L 352 341.8232005647491 L 353 344.9398089542294 L 354 348.0728088476073 L 355 351.22130023773207 L 356 354.3843786672588 L 357 357.561135488469 L 358 360.7506581242953 L 359 363.9520303304741 L 360 367.1643324587528 L 361 370.38664172107383 L 362 373.61803245466143 L 363 376.85757638793365 L 364 380.1043429071645 L 365 383.3573993238175 L 366 386.61581114247747 L 367 389.8786423292993 L 368 393.1449555808998 L 369 396.4138125936138 L 370 399.6842743330377 L 371 402.9554013037831 L 372 406.2262538193627 L 373 409.495892272131 L 374 412.7633774032027 L 375 416.02777057227036 L 376 419.28813402724495 L 377 422.54353117364093 L 378 425.7930268436287 L 379 429.0356875646776 L 380 432.27058182771134 L 381 435.4967803547001 L 382 438.71335636561105 L 383 441.91938584464174 L 384 445.1139478056592 L 385 448.29612455676846 L 386 451.46500196393566 L 387 454.61966971358817 L 388 457.7592215741174 L 389 460.8827556562094 L 390 463.9893746719276 L 391 467.0781861924741 L 392 470.14830290455484 L 393 473.19884286527525 L 394 476.2289297554935 L 395 479.23769313155753 L 396 482.22426867535535 L 397 485.1877984426044 L 398 488.1274311093107 L 399 491.04232221632645 L 400 493.9316344119346 L 401 496.7945376923927 L 402 499.63020964036525 L 403 502.43783566117713 L 404 505.2166092168199 L 405 507.96573205764247 L 406 510.68441445166314 L 407 513.3718754114327 L 408 516.0273429183865 L 409 518.6500541446193 L 410 521.2392556720215 L 411 523.7942037087104 L 412 526.3141643026969 L 413 528.7984135527263 L 414 531.2462378162307 L 415 533.656933914335 L 416 536.0298093338566 L 417 538.3641824262423 L 418 540.6593826033825 L 419 542.9147505302492 L 420 545.1296383143017 L 421 547.3034096916039 L 422 549.4354402096021 L 423 551.5251174065103 L 424 553.5718409872484 L 425 555.5750229958893 L 426 557.5340879845575 L 427 559.448473178737 L 428 561.3176286389379 L 429 563.141017418675 L 430 564.9181157187157 L 431 566.6484130375495 L 432 568.3314123180388 L 433 569.9666300902061 L 434 571.5535966101199 L 435 573.0918559948357 L 436 574.5809663533569 L 437 576.0204999135746 L 438 577.4100431451532 L 439 578.7491968783231 L 440 580.0375764185501 L 441 581.2748116570442 L 442 582.4605471770803 L 443 583.5944423560976 L 444 584.6761714635489 L 445 585.7054237544727 L 446 586.6819035587591 L 447 587.6053303660873 L 448 588.4754389065055 L 449 589.2919792266352 L 450 590.0547167614743 L 451 590.7634324017797 L 452 591.4179225570098 L 453 592.0179992138103 L 454 592.5634899900233 L 455 593.0542381842074 L 456 593.4901028206527 L 457 593.8709586898785 L 458 594.1966963846021 L 459 594.4672223311672 L 460 594.6824588164252 L 461 594.8423440100594 L 462 594.9468319823467 L 463 594.9958927173517 L 464 594.9895121215494 L 465 594.9276920278738 L 466 594.8104501951913 L 467 594.637820303199 L 468 594.4098519427499 L 469 594.1266106016071 L 470 593.7881776456312 L 471 593.3946502954063 L 472 592.9461415983127 L 473 592.4427803960507 L 474 591.8847112876301 L 475 591.2720945878307 L 476 590.6051062811495 L 477 589.8839379712462 L 478 589.1087968259018 L 479 588.2799055175062 L 480 587.3975021590917 L 481 586.4618402359308 L 482 585.4731885327192 L 483 584.4318310563613 L 484 583.3380669543857 L 485 582.1922104290097 L 486 580.9945906468794 L 487 579.7455516445104 L 488 578.4454522294587 L 489 577.0946658772459 L 490 575.6935806240732 L 491 574.2425989553503 L 492 572.7421376900757 L 493 571.192627861098 L 494 569.5945145912938 L 495 567.9482569657001 L 496 566.2543278996327 L 497 564.5132140028346 L 498 562.7254154396882 L 499 560.8914457855354 L 500 559.0118318791438 L 501 557.0871136713637 L 502 555.1178440700179 L 503 553.10458878107 L 504 551.047926146115 L 505 548.9484469762419 L 506 546.8067543823122 L 507 544.6234636017074 L 508 542.3992018215899 L 509 540.134607998735 L 510 537.8303326759777 L 511 535.4870377953351 L 512 533.1053965078506 L 513 530.6860929802218 L 514 528.2298221982608 L 515 525.7372897672471 L 516 523.2092117092333 L 517 520.646314257352 L 518 518.0493336471965 L 519 515.419015905322 L 520 512.7561166349391 L 521 510.06140079885154 L 522 507.33564249971073 L 523 504.5796247576385 L 524 501.79413928529414 L 525 498.9799862604392 L 526 496.13797409607525 L 527 493.26891920821095 L 528 490.37364578133565 L 529 487.45298553165554 L 530 484.50777746817187 L 531 481.538867651659 L 532 478.5471089516211 L 533 475.53336080129014 L 534 472.49848895073836 L 535 469.44336521817894 L 536 466.3688672395191 L 537 463.27587821624684 L 538 460.16528666171376 L 539 457.03798614589743 L 540 453.89487503870544 L 541 450.73685625190603 L 542 447.56483697974926 L 543 444.37972843836224 L 544 441.18244560398455 L 545 437.9739069501284 L 546 434.7550341837291 L 547 431.5267519803716 L 548 428.28998771865923 L 549 425.04567121381126 L 550 421.7947344505552 L 551 418.5381113154004 L 552 415.2767373283627 L 553 412.0115493742195 L 554 408.7434854333759 L 555 405.4734843124115 L 556 402.2024853743949 L 557 398.93142826903323 L 558 395.6612526627445 L 559 392.3928979687198 L 560 389.12730307706386 L 561 385.86540608508017 L 562 382.60814402778936 L 563 379.35645260874753 L 564 376.111265931252 L 565 372.873516230002 L 566 369.64413360330093 L 567 366.42404574586743 L 568 363.21417768234187 L 569 360.0154515015549 L 570 356.82878609164436 L 571 353.65509687608665 L 572 350.49529555072803 L 573 347.35028982188373 L 574 344.22098314558286 L 575 341.1082744680379 L 576 338.0130579674043 L 577 334.93622279691556 L 578 331.87865282945614 L 579 328.84122640365695 L 580 325.8248160715748 L 581 322.83028834803974 L 582 319.85850346173174 L 583 316.9103151080676 L 584 313.98657020396035 L 585 311.0881086445303 L 586 308.21576306182874 L 587 305.3703585856525 L 588 302.5527126065093 L 589 299.7636345408108 L 590 297.00392559835166 L 591 294.27437855215044 L 592 291.57577751071176 L 593 288.90889769277635 L 594 286.2745052046289 L 595 283.6733568200185 L 596 281.10619976276513 L 597 278.57377149210447 L 598 276.0767994908425 L 599 273.61600105637217 L 600 271.1920830946186 L 601 268.8057419169677 L 602 266.4576630402397 L 603 264.1485209897619 L 604 261.87897910560116 L 605 259.6496893520067 L 606 257.4612921301241 L 607 255.31441609402737 L 608 253.2096779701293 L 609 251.14768238001466 L 610 249.1290216667539 L 611 247.15427572474198 L 612 245.22401183311322 L 613 243.33878449278225 L 614 241.49913526715275 L 615 239.70559262654564 L 616 237.95867179638557 L 617 236.2588746091952 L 618 234.60668936043393 L 619 233.00259066822812 L 620 231.44703933702766 L 621 229.94048222523352 L 622 228.48335211682863 L 623 227.0760675970549 L 624 225.71903293216607 L 625 224.41263795329672 L 626 223.15725794447553 L 627 221.9532535348197 L 628 220.80097059493704 L 629 219.70074013756982 L 630 218.65287822250488 L 631 217.6576858657808 L 632 216.7154489532157 L 633 215.8264381582815 L 634 214.99090886434874 L 635 214.20910109132313 L 636 213.48123942669605 L 637 212.80753296102762 L 638 212.18817522788234 L 639 211.62334414823283 L 640 211.11320197934958 L 641 210.6578952681892 L 642 210.2575548092969 L 643 209.91229560723303 L 644 209.62221684353662 L 645 209.38740184823322 L 646 209.2079180758975 L 647 209.0838170862753 L 648 209.01513452947262 L 649 209.00189013571423 L 650 209.04408770967603 L 651 209.14171512939197 L 652 209.29474434973636 L 653 209.50313141048022 L 654 209.7668164489197 L 655 210.08572371707265 L 656 210.45976160343844 L 657 210.8888226593148 L 658 211.3727836296647 L 659 211.9115054885228 L 660 212.50483347893376 L 661 213.152597157408 L 662 213.85461044288522 L 663 214.61067167018862 L 664 215.42056364795735 L 665 216.28405372103768 L 666 217.20089383731778 L 667 218.1708206189843 L 668 219.19355543818264 L 669 220.26880449705706 L 670 221.39625891214914 L 671 222.57559480313026 L 672 223.80647338584092 L 673 225.08854106961303 L 674 226.4214295588439 L 675 227.80475595879642 L 676 229.23812288559088 L 677 230.7211185803615 L 678 232.25331702753968 L 679 233.83427807723567 L 680 235.4635475716776 L 681 237.1406574756774 L 682 238.86512601108032 L 683 240.63645779516546 L 684 242.45414398295117 L 685 244.31766241337098 L 686 246.22647775927163 L 687 248.18004168119637 L 688 250.17779298490316 L 689 252.2191577825789 L 690 254.30354965769675 L 691 256.4303698334751 L 692 258.5990073448867 L 693 260.80883921416716 L 694 263.059230629778 L 695 265.3495351287647 L 696 267.6790947824662 L 697 270.0472403855141 L 698 272.45329164807504 L 699 274.8965573912737 L 700 277.3763357457473 L 701 279.8919143532678 L 702 282.44257057138054 L 703 285.02757168099345 L 704 287.6461750968653 L 705 290.29762858092374 L 706 292.9811704583601 L 707 295.6960298364318 L 708 298.44142682591604 L 709 301.2165727651444 L 710 304.0206704465601 L 711 306.85291434573 L 712 309.7124908527435 L 713 312.59857850593744 L 714 315.5103482278731 L 715 318.44696356350477 L 716 321.4075809204631 L 717 324.391349811394 L 718 327.39741309827264 L 719 330.4249072386339 L 720 333.4729625336364 L 721 336.540703377901 L 722 339.6272485110408 L 723 342.73171127082037 L 724 345.8531998478621 L 725 348.99081754183595 L 726 352.14366301904937 L 727 355.310830571373 L 728 358.49141037641857 L 729 361.6844887589014 L 730 364.8891484531105 L 731 368.104468866406 L 732 371.3295263436777 L 733 374.56339443267785 L 734 377.8051441501632 L 735 381.0538442487579 L 736 384.30856148447333 L 737 387.5683608847951 L 738 390.83230601727246 L 739 394.0994592585218 L 740 397.3688820635774 L 741 400.6396352355017 L 742 403.91077919518796 L 743 407.18137425126787 L 744 410.45048087005625 L 745 413.7171599454453 L 746 416.9804730686815 L 747 420.23948279793643 L 748 423.49325292760585 L 749 426.74084875724793 L 750 429.9813373600929 L 751 433.2137878510427 L 752 436.43727165408177 L 753 439.6508627690282 L 754 442.8536380375407 L 755 446.04467740831376 L 756 449.22306420137556 L 757 452.38788537142227 L 758 455.53823177010327 L 759 458.67319840719165 L 760 461.79188471055573 L 761 464.89339478486596 L 762 467.9768376689535 L 763 471.04132759175644 L 764 474.0859842267699 L 765 477.1099329449373 L 766 480.11230506589976 L 767 483.0922381075417 L 768 486.0488760337513 L 769 488.9813695003321 L 770 491.88887609899274 L 771 494.77056059934034 L 772 497.62559518881733 L 773 500.4531597105022 L 774 503.2524418987154 L 775 506.0226376123547 L 776 508.7629510658999 L 777 511.4725950580141 L 778 514.1507911976821 L 779 516.7967701278147 L 780 519.4097717462616 L 781 521.9890454241612 L 782 524.5338502215737 L 783 527.0434551003268 L 784 529.5171391340202 L 785 531.9541917151224 L 786 534.3539127591065 L 787 536.7156129055596 L 788 539.038613716214 L 789 541.3222478698405 L 790 543.5658593539467 L 791 545.768803653229 L 792 547.9304479347186 L 793 550.0501712295754 L 794 552.1273646114705 L 795 554.1614313715115 L 796 556.1517871896563 L 797 558.0978603025694 L 798 559.9990916678707 L 799 561.8549351247298 L 800 563.6648575507593 L 801 565.4283390151644 L 802 567.1448729281005 L 803 568.813966186201 L 804 570.4351393142282 L 805 572.007926602812 L 806 573.5318762422314 L 807 575.0065504522063 L 808 576.4315256076552 L 809 577.80639236039 L 810 579.1307557567079 L 811 580.4042353508487 L 812 581.6264653142837 L 813 582.7970945408064 L 814 583.9157867473943 L 815 584.9822205708107 L 816 585.9960896599229 L 817 586.9571027637057 L 818 587.8649838149091 L 819 588.7194720093627 L 820 589.5203218808961 L 821 590.2673033718536 L 822 590.9602018991819 L 823 591.5988184160725 L 824 592.1829694691419 L 825 592.7124872511306 L 826 593.1872196491099 L 827 593.6070302881781 L 828 593.9717985706361 L 829 594.2814197106326 L 830 594.5358047642636 L 831 594.7348806551252 L 832 594.878590195304 L 833 594.9668921018068 L 834 594.9997610084192 L 835 594.9771874729922 L 836 594.8991779801556 L 837 594.7657549394539 L 838 594.5769566789097 L 839 594.3328374340132 L 840 594.0334673321418 L 841 593.6789323724148 L 842 593.2693344009895 L 843 592.8047910818032 L 844 592.2854358627725 L 845 591.7114179374587 L 846 591.0829022022085 L 847 590.4000692087859 L 848 589.6631151125042 L 849 588.8722516158784 L 850 588.0277059078093 L 851 587.12972059832 L 852 586.1785536488619 L 853 585.174478298211 L 854 584.1177829839754 L 855 583.0087712597369 L 856 581.8477617078496 L 857 580.6350878479225 L 858 579.3710980410093 L 859 578.0561553895375 L 860 576.6906376329988 L 861 575.2749370394394 L 862 573.8094602927723 L 863 572.2946283759524 L 864 570.7308764500401 L 865 569.1186537291957 L 866 567.4584233516335 L 867 565.7506622465792 L 868 563.9958609972623 L 869 562.1945236999884 L 870 560.3471678193298 L 871 558.4543240394735 L 872 556.5165361117748 L 873 554.5343606985541 L 874 552.5083672131876 L 875 550.4391376565324 L 876 548.3272664497381 L 877 546.1733602634881 L 878 543.9780378437247 L 879 541.741929833902 L 880 539.4656785938247 L 881 537.149938015118 L 882 534.7953733333875 L 883 532.4026609371174 L 884 529.9724881733683 L 885 527.5055531503235 L 886 525.002564536747 L 887 522.4642413584054 L 888 519.8913127915159 L 889 517.2845179532789 L 890 514.6446056895523 L 891 511.97233435973527 L 892 509.2684716189141 L 893 506.5337941973428 L 894 503.7690876773121 L 895 500.97514626747943 L 896 498.15277257471723 L 897 495.30277737355283 L 898 492.4259793732572 L 899 489.5232049826593 L 900 486.5952880727441 L 901 483.64306973711103 L 902 480.66739805035354 L 903 477.6691278244376 L 904 474.64912036314007 L 905 471.6082432146269 L 906 468.54736992223434 L 907 465.4673797735278 L 908 462.3691575477138 L 909 459.25359326147 L 910 456.12158191327495 L 911 452.97402322630245 L 912 449.81182138996337 L 913 446.6358848001592 L 914 443.4471257983329 L 915 440.2464604093803 L 916 437.0348080785097 L 917 433.81309140711267 L 918 430.58223588773393 L 919 427.3431696382054 L 920 424.0968231350311 L 921 420.84412894608994 L 922 417.5860214627418 L 923 414.3234366314057 L 924 411.0573116846957 L 925 407.78858487218264 L 926 404.51819519086814 L 927 401.247082115441 L 928 397.97618532839624 L 929 394.70644445009776 L 930 391.4387987688537 L 931 388.17418697109287 L 932 384.9135468717084 L 933 381.65781514465726 L 934 378.40792705388236 L 935 375.1648161846446 L 936 371.92941417533217 L 937 368.70265044983427 L 938 365.4854519505459 L 939 362.2787428720905 L 940 359.0834443958269 L 941 355.90047442522695 L 942 352.7307473221896 L 943 349.57517364437774 L 944 346.4346598836424 L 945 343.31010820562 L 946 340.2024161905686 L 947 337.1124765755241 L 948 334.0411769978434 L 949 330.9893997402198 L 950 327.95802147722975 L 951 324.94791302349427 L 952 321.9599390835206 L 953 318.99495800330493 L 954 316.0538215237552 L 955 313.13737453601556 L 956 310.24645483875486 L 957 307.3818928974982 L 958 304.54451160605936 L 959 301.73512605015185 L 960 298.9545432732393 L 961 296.2035620447025 L 962 293.4829726303765 L 963 290.7935565655348 L 964 288.1360864303781 L 965 285.51132562810074 L 966 282.92002816558784 L 967 280.36293843681494 L 968 277.8407910090086 L 969 275.3543104116277 L 970 272.9042109282328 L 971 270.4911963912944 L 972 268.1159599800061 L 973 265.7791840211553 L 974 263.48153979311576 L 975 261.2236873330104 L 976 259.00627524710467 L 977 256.829940524482 L 978 254.69530835406076 L 979 252.60299194499595 L 980 250.5535923505258 L 981 248.54769829530707 L 982 246.58588600629676 L 983 244.66871904721924 L 984 242.79674815667366 L 985 240.97051108992525 L 986 239.19053246442454 L 987 237.45732360910446 L 988 235.7713824174909 L 989 234.13319320467508 L 990 232.54322656818456 L 991 231.00193925279817 L 992 229.509774019337 L 993 228.0671595174744 L 994 226.67451016259815 L 995 225.33222601676425 L 996 224.04069267377116 L 997 222.80028114839212 L 998 221.61134776979375 L 999 220.47423407917609 L 1000 219.38926673165807 L 1001 218.35675740244076 L 1002 217.37700269727256 L 1003 216.45028406724555 L 1004 215.57686772794284 L 1005 214.7570045829641 L 1006 213.9909301518493 L 1007 213.27886450242116 L 1008 212.62101218756777 L 1009 212.01756218648092 L 1010 211.4686878503686 L 1011 210.97454685265683 L 1012 210.53528114369567 L 1013 210.15101690998137 L 1014 209.82186453790712 L 1015 209.5479185820527 L 1016 209.3292577380222 L 1017 209.1659448198373 L 1018 209.05802674189295 L 1019 209.0055345054802 L 1020 209.00848318988082 L 1021 209.06687194803547 L 1022 209.1806840067868 L 1023 209.34988667169824 L 1024 209.57443133644554 L 1025 209.85425349678013 L 1026 210.18927276905896 L 1027 210.5793929133359 L 1028 211.02450186100867 L 1029 211.52447174701192 L 1030 212.07915894654903 L 1031 212.68840411635048 L 1032 213.35203224044847 L 1033 214.06985268045233 L 1034 214.84165923031324 L 1035 215.6672301755601 L 1036 216.54632835699135 L 1037 217.4787012388021 L 1038 218.46408098112974 L 1039 219.50218451699533 L 1040 220.59271363362006 L 1041 221.73535505809073 L 1042 222.9297805473535 L 1043 224.17564698250695 L 1044 225.4725964673687 L 1045 226.8202564312881 L 1046 228.2182397361718 L 1047 229.66614478769685 L 1048 231.16355565067485 L 1049 232.71004216853757 L 1050 234.3051600869049 L 1051 235.94845118120563 L 1052 237.6394433883095 L 1053 239.37765094213674 L 1054 241.1625745132006 L 1055 242.99370135204933 L 1056 244.87050543656161 L 1057 246.79244762305672 L 1058 248.75897580117044 L 1059 250.76952505245947 L 1060 252.82351781268318 L 1061 254.92036403772033 L 1062 257.0594613730665 L 1063 259.2401953268726 L 1064 261.46193944646734 L 1065 263.724055498316 L 1066 266.0258936513656 L 1067 268.36679266371726 L 1068 270.74608007258064 L 1069 273.16307238744946 L 1070 275.61707528644774 L 1071 278.10738381578244 L 1072 280.6332825922552 L 1073 283.1940460087675 L 1074 285.78893844276536 L 1075 288.4172144675565 L 1076 291.07811906644866 L 1077 293.7708878496398 L 1078 296.4947472738043 L 1079 299.24891486430306 L 1080 302.03259943996454 L 1081 304.8450013403641 L 1082 307.68531265554213 L 1083 310.55271745808625 L 1084 313.44639203752274 L 1085 316.36550513694067 L 1086 319.30921819178377 L 1087 322.276685570745 L 1088 325.2670548186843 L 1089 328.27946690151356 L 1090 331.3130564529674 L 1091 334.3669520231964 L 1092 337.44027632910263 L 1093 340.53214650635596 L 1094 343.64167436301096 L 1095 346.76796663465717 L 1096 349.910125241021 L 1097 353.0672475439565 L 1098 356.2384266067428 L 1099 359.4227514546189 L 1100 362.6193073364731 L 1101 365.8271759876233 L 1102 369.04543589360316 L 1103 372.27316255488216 L 1104 375.5094287524465 L 1105 378.75330481415426 L 1106 382.00385888180205 L 1107 385.2601571788159 L 1108 388.52126427849686 L 1109 391.78624337273413 L 1110 395.05415654112187 L 1111 398.324065020391 L 1112 401.5950294740878 L 1113 404.86611026241013 L 1114 408.1363677121372 L 1115 411.4048623865657 L 1116 414.6706553553812 L 1117 417.93280846437784 L 1118 421.19038460496176 L 1119 424.4424479833498 L 1120 427.68806438939487 L 1121 430.9263014649498 L 1122 434.1562289717053 L 1123 437.376919058416 L 1124 440.5874465274411 L 1125 443.78688910052523 L 1126 446.9743276837347 L 1127 450.14884663148536 L 1128 453.30953400957605 L 1129 456.4554818571596 L 1130 459.585786447566 L 1131 462.6995485479158 L 1132 465.79587367743875 L 1133 468.8738723644309 L 1134 471.9326604017666 L 1135 474.97135910090464 L 1136 477.9890955443048 L 1137 480.9850028361911 L 1138 483.95822035157795 L 1139 486.9078939835023 L 1140 489.83317638837855 L 1141 492.73322722941526 L 1142 495.6072134180119 L 1143 498.4543093530804 L 1144 501.27369715821237 L 1145 504.0645669166272 L 1146 506.8261169038369 L 1147 509.5575538179512 L 1148 512.2580930075695 L 1149 514.926958697184 L 1150 517.5633842100365 L 1151 520.1666121883561 L 1152 522.7358948109251 L 1153 525.270494007902 L 1154 527.7696816728471 L 1155 530.23273987188 L 1156 532.65896104992 L 1157 535.0476482339427 L 1158 537.3981152331993 L 1159 539.709686836333 L 1160 541.9816990053474 L 1161 544.2134990663617 L 1162 546.4044458971023 L 1163 548.5539101110771 L 1164 550.6612742383758 L 1165 552.725932903049 L 1166 554.7472929970131 L 1167 556.7247738504316 L 1168 558.6578073985196 L 1169 560.5458383447324 L 1170 562.3883243202823 L 1171 564.1847360399453 L 1172 565.9345574541045 L 1173 567.6372858969958 L 1174 569.2924322311064 L 1175 570.8995209876891 L 1176 572.4580905033472 L 1177 573.9676930526551 L 1178 575.4278949767761 L 1179 576.8382768080382 L 1180 578.1984333904321 L 1181 579.5079739959999 L 1182 580.766522437078 L 1183 581.973717174364 L 1184 583.1292114207745 L 1185 584.2326732410651 L 1186 585.2837856471853 L 1187 586.2822466893379 L 1188 587.2277695427202 L 1189 588.120082589918 L 1190 588.9589294989328 L 1191 589.744069296818 L 1192 590.475276438902 L 1193 591.1523408735795 L 1194 591.775068102653 L 1195 592.3432792372048 L 1196 592.8568110489869 L 1197 593.3155160173103 L 1198 593.7192623714232 L 1199 594.0679341283638 L 1200 594.3614311262797 L 1201 594.5996690531996 L 1202 594.7825794712537 L 1203 594.9101098363344 L 1204 594.9822235131896 L 1205 594.9988997859475 L 1206 594.9601338640668 L 1207 594.8659368837136 L 1208 594.716335904562 L 1209 594.5113739020206 L 1210 594.2511097548875 L 1211 593.9356182284359 L 1212 593.5649899529374 L 1213 593.1393313976253 L 1214 592.6587648401112 L 1215 592.1234283312579 L 1216 591.5334756555219 L 1217 590.8890762867765 L 1218 590.1904153396272 L 1219 589.437693516235 L 1220 588.6311270486605 L 1221 587.7709476367486 L 1222 586.8574023815676 L 1223 585.8907537144263 L 1224 584.8712793214856 L 1225 583.7992720639893 L 1226 582.6750398941324 L 1227 581.4989057666 L 1228 580.2712075457906 L 1229 578.9922979087602 L 1230 577.6625442439082 L 1231 576.2823285454413 L 1232 574.8520473036369 L 1233 573.3721113909469 L 1234 571.8429459439642 L 1235 570.2649902412991 L 1236 568.6386975773863 L 1237 566.9645351322697 L 1238 565.2429838373955 L 1239 563.4745382374588 L 1240 561.6597063483357 L 1241 559.7990095111477 L 1242 557.8929822424974 L 1243 555.9421720809191 L 1244 553.9471394295907 L 1245 551.9084573953468 L 1246 549.8267116240452 L 1247 547.7025001323286 L 1248 545.5364331358365 L 1249 543.329132873909 L 1250 541.0812334308384 L 1251 538.7933805537167 L 1252 536.4662314669363 L 1253 534.1004546833888 L 1254 531.696729812425 L 1255 529.2557473646239 L 1256 526.7782085534336 L 1257 524.2648250937352 L 1258 521.7163189973913 L 1259 519.1334223658333 L 1260 516.5168771797568 L 1261 513.8674350859721 L 1262 511.1858571814828 L 1263 508.472913794847 L 1264 505.729384264886 L 1265 502.95605671680926 L 1266 500.15372783580966 L 1267 497.32320263820367 L 1268 494.46529424017416 L 1269 491.5808236241929 L 1270 488.6706194031767 L 1271 485.73551758245617 L 1272 482.7763613196157 L 1273 479.794000682287 L 1274 476.7892924039493 L 1275 473.7630996378202 L 1276 470.71629170889724 L 1277 467.649743864234 L 1278 464.5643370215073 L 1279 461.4609575159602 L 1280 458.34049684578713 L 1281 455.20385141603384 L 1282 452.05192228109365 L 1283 448.88561488586174 L 1284 445.70583880563214 L 1285 442.51350748480417 L 1286 439.30953797448416 L 1287 436.0948506690444 L 1288 432.8703690417253 L 1289 429.63701937935014 L 1290 426.3957305162367 L 1291 423.1474335673719 L 1292 419.89306166093417 L 1293 416.6335496702342 L 1294 413.3698339451608 L 1295 410.1028520431957 L 1296 406.83354246008594 L 1297 403.5628443602422 L 1298 400.2916973069521 L 1299 397.0210409924719 L 1300 393.75181496808506 L 1301 390.4849583742007 L 1302 387.2214096705668 L 1303 383.9621063666861 L 1304 380.70798475249796 L 1305 377.45997962941436 L 1306 374.2190240417799 L 1307 370.9860490088431 L 1308 367.7619832573026 L 1309 364.547752954516 L 1310 361.3442814424402 L 1311 358.15248897238973 L 1312 354.97329244067623 L 1313 351.80760512521596 L 1314 348.65633642317255 L 1315 345.5203915897213 L 1316 342.4006714779968 L 1317 339.2980722803088 L 1318 336.2134852706932 L 1319 333.14779654888264 L 1320 330.1018867857567 L 1321 327.0766309703547 L 1322 324.0728981585213 L 1323 321.09155122325296 L 1324 318.1334466068266 L 1325 315.1994340747699 L 1326 312.2903564717527 L 1327 309.40704947946364 L 1328 306.5503413765496 L 1329 303.7210528006767 L 1330 300.91999651278906 L 1331 298.14797716362756 L 1332 295.40579106258343 L 1333 292.69422594894286 L 1334 290.01406076559664 L 1335 287.36606543527336 L 1336 284.7510006393695 L 1337 282.16961759942876 L 1338 279.6226578613411 L 1339 277.1108530823223 L 1340 274.63492482073036 L 1341 272.1955843287894 L 1342 269.79353234826766 L 1343 267.4294589091793 L 1344 265.10404313155925 L 1345 262.81795303037745 L 1346 260.5718453236385 L 1347 258.36636524372915 L 1348 256.2021463520625 L 1349 254.07981035707968 L 1350 251.99996693565168 L 1351 249.96321355794024 L 1352 247.97013531576272 L 1353 246.02130475451727 L 1354 244.1172817087077 L 1355 242.25861314112234 L 1356 240.44583298570828 L 1357 238.67946199419205 L 1358 236.96000758648347 L 1359 235.28796370491094 L 1360 233.6638106723286 L 1361 232.0880150541341 L 1362 230.56102952424186 L 1363 229.0832927350434 L 1364 227.65522919139775 L 1365 226.27724912868408 L 1366 224.9497483949564 L 1367 223.67310833722829 L 1368 222.44769569192513 L 1369 221.27386247953189 L 1370 220.15194590347073 L 1371 219.08226825323266 L 1372 218.0651368117949 L 1373 217.10084376734778 L 1374 216.1896661293601 L 1375 215.33186564900248 L 1376 214.52768874395545 L 1377 213.77736642762102 L 1378 213.0811142427613 L 1379 212.43913219957938 L 1380 211.85160471826333 L 1381 211.31870057600844 L 1382 210.8405728585326 L 1383 210.41735891610068 L 1384 210.04918032406772 L 1385 209.73614284795468 L 1386 209.4783364130651 L 1387 209.2758350786531 L 1388 209.12869701664818 L 1389 209.03696449494453 L 1390 209.0006638652588 L 1391 209.0198055555601 L 1392 209.0943840670746 L 1393 209.22437797586483 L 1394 209.40974993898425 L 1395 209.65044670520467 L 1396 209.9463991303135 L 1397 210.2975221969765 L 1398 210.70371503916058 L 1399 211.16486097110945 L 1400 211.68082752086315 L 1401 212.25146646831303 L 1402 212.87661388778054 L 1403 213.5560901951079 L 1404 214.28970019924623 L 1405 215.07723315832754 L 1406 215.918462840204 L 1407 216.81314758743744 L 1408 217.76103038671852 L 1409 218.76183894269892 L 1410 219.8152857562122 L 1411 220.9210682068639 L 1412 222.0788686399629 L 1413 223.288354457774 L 1414 224.54917821506174 L 1415 225.86097771890104 L 1416 227.2233761327216 L 1417 228.6359820845616 L 1418 230.09838977949568 L 1419 231.61017911620615 L 1420 233.17091580766524 L 1421 234.78015150588976 L 1422 236.4374239307377 L 1423 238.14225700270535 L 1424 239.89416097969078 L 1425 241.69263259767814 L 1426 243.53715521531043 L 1427 245.4271989623025 L 1428 247.36222089165693 L 1429 249.34166513563233 L 1430 251.36496306542733 L 1431 253.431533454528 L 1432 255.54078264567667 L 1433 257.6921047214074 L 1434 259.8848816781079 L 1435 262.11848360355026 L 1436 264.39226885784626 L 1437 266.70558425776585 L 1438 269.0577652643776 L 1439 271.44813617394766 L 1440 273.876010312047 L 1441 276.340690230812 L 1442 278.8414679092954 L 1443 281.3776249568587 L 1444 283.94843281954184 L 1445 286.553152989354 L 1446 289.19103721641966 L 1447 291.8613277239281 L 1448 294.5632574258166 L 1449 297.2960501471307 L 1450 300.0589208469909 L 1451 302.8510758441104 L 1452 305.671713044793 L 1453 308.52002217334973 L 1454 311.3951850048614 L 1455 314.2963756002293 L 1456 317.22276054343996 L 1457 320.17349918097716 L 1458 323.14774386331646 L 1459 326.14464018842295 L 1460 329.16332724719535 L 1461 332.2029378707753 L 1462 335.2625988796589 L 1463 338.3414313345284 L 1464 341.438550788745 L 1465 344.55306754241946 L 1466 347.6840868979967 L 1467 350.8307094172681 L 1468 353.99203117975367 L 1469 357.16714404236643 L 1470 360.35513590029524 L 1471 363.5550909490177 L 1472 366.7660899473836 L 1473 369.98721048168073 L 1474 373.2175272306169 L 1475 376.4561122311298 L 1476 379.7020351449628 L 1477 382.95436352591975 L 1478 386.2121630877251 L 1479 389.4744979724164 L 1480 392.7404310191807 L 1481 396.0090240335732 L 1482 399.27933805702764 L 1483 402.55043363659087 L 1484 405.8213710947925 L 1485 409.09121079958595 L 1486 412.359013434272 L 1487 415.6238402673365 L 1488 418.8847534221123 L 1489 422.14081614620335 L 1490 425.3910930805809 L 1491 428.6346505282843 L 1492 431.8705567226367 L 1493 435.09788209491387 L 1494 438.315699541377 L 1495 441.52308468960155 L 1496 444.719116164015 L 1497 447.9028758505801 L 1498 451.0734491605378 L 1499 454.2299252931381 L 1500 457.3713974972852 L 1501 460.49696333201337 L 1502 463.6057249257307 L 1503 466.696789234147 L 1504 469.7692682968181 L 1505 472.82227949222363 L 1506 475.85494579131785 L 1507 478.8663960094693 L 1508 481.85576505672657 L 1509 484.8221941863252 L 1510 487.76483124138053 L 1511 490.6828308996828 L 1512 493.5753549165323 L 1513 496.4415723655361 L 1514 499.2806598773078 L 1515 502.09180187599384 L 1516 504.87419081356086 L 1517 507.62702740177997 L 1518 510.34952084183186 L 1519 513.04088905148 L 1520 515.7003588897356 L 1521 518.3271663789576 L 1522 520.9205569243146 L 1523 523.4797855305578 L 1524 526.0041170160318 L 1525 528.4928262238708 L 1526 530.9451982303076 L 1527 533.3605285500514 L 1528 535.7381233386607 L 1529 538.0772995918645 L 1530 540.3773853417638 L 1531 542.6377198498674 L 1532 544.8576537968996 L 1533 547.0365494693297 L 1534 549.1737809425633 L 1535 551.2687342607518 L 1536 553.3208076131605 L 1537 555.3294115070494 L 1538 557.2939689370157 L 1539 559.2139155507467" stroke-linecap="round" stroke-linejoin="round" stroke-miterlimit="10" stroke-width="16"/></g></svg>