<?xml version="1.0" encoding="UTF-8"?> <svg xmlns="http://www.w3.org/2000/svg" id="Слой_1" data-name="Слой 1" viewBox="0 0 90.44 90.5"><defs><style>.cls-1{fill:#009245;stroke:#fff;stroke-miterlimit:10;stroke-width:10px;}.cls-2{fill:#fff;}</style></defs><path class="cls-1" d="M1082.06,517.9h-420v104c29,65.21,393,68.32,420,0Z" transform="translate(-657.06 -148.5)"></path><path class="cls-1" d="M1082.5,419h-420V523c29,65.21,393,68.32,420,0Z" transform="translate(-657.06 -148.5)"></path><path class="cls-1" d="M1082.5,313.42h-420v104c29,65.21,393,68.31,420,0Z" transform="translate(-657.06 -148.5)"></path><path class="cls-1" d="M1082.5,211h-420V315c29,65.21,393,68.32,420,0Z" transform="translate(-657.06 -148.5)"></path><ellipse class="cls-1" cx="215.94" cy="61.67" rx="209.5" ry="56.67"></ellipse><ellipse class="cls-2" cx="43.44" cy="141.63" rx="9.5" ry="14.75"></ellipse><ellipse class="cls-2" cx="43.44" cy="244.1" rx="9.5" ry="14.75"></ellipse><ellipse class="cls-2" cx="43.44" cy="345.02" rx="9.5" ry="14.75"></ellipse><ellipse class="cls-2" cx="43.44" cy="452.16" rx="9.5" ry="14.75"></ellipse></svg> 