<?xml version="1.0" encoding="UTF-8"?>
<svg xmlns="http://www.w3.org/2000/svg" xmlns:xlink="http://www.w3.org/1999/xlink" width="50px" height="50px" viewBox="0 0 50 50" version="1.1">
<g id="surface1">
<path style=" stroke:none;fill-rule:nonzero;fill:rgb(23.137255%,83.529412%,70.196078%);fill-opacity:1;" d="M 18.75 40.625 L 6.25 40.625 C 5.386719 40.625 4.6875 39.925781 4.6875 39.0625 C 4.6875 38.199219 5.386719 37.5 6.25 37.5 L 17.1875 37.5 L 17.1875 32.8125 C 17.1875 31.949219 17.886719 31.25 18.75 31.25 L 29.6875 31.25 L 29.6875 26.5625 C 29.6875 25.699219 30.386719 25 31.25 25 L 43.75 25 C 44.613281 25 45.3125 25.699219 45.3125 26.5625 C 45.3125 27.425781 44.613281 28.125 43.75 28.125 L 32.8125 28.125 L 32.8125 32.8125 C 32.8125 33.675781 32.113281 34.375 31.25 34.375 L 20.3125 34.375 L 20.3125 39.0625 C 20.3125 39.925781 19.613281 40.625 18.75 40.625 Z M 18.75 40.625 "/>
<path style=" stroke:none;fill-rule:nonzero;fill:rgb(29.019608%,54.509804%,99.607843%);fill-opacity:1;" d="M 18.75 25 L 6.25 25 C 5.386719 25 4.6875 24.300781 4.6875 23.4375 C 4.6875 22.574219 5.386719 21.875 6.25 21.875 L 17.1875 21.875 L 17.1875 17.1875 C 17.1875 16.324219 17.886719 15.625 18.75 15.625 L 29.6875 15.625 L 29.6875 10.9375 C 29.6875 10.074219 30.386719 9.375 31.25 9.375 L 43.75 9.375 C 44.613281 9.375 45.3125 10.074219 45.3125 10.9375 C 45.3125 11.800781 44.613281 12.5 43.75 12.5 L 32.8125 12.5 L 32.8125 17.1875 C 32.8125 18.050781 32.113281 18.75 31.25 18.75 L 20.3125 18.75 L 20.3125 23.4375 C 20.3125 24.300781 19.613281 25 18.75 25 Z M 18.75 25 "/>
</g>
</svg>
